<?xml version="1.0" encoding="utf-8"?>
<!-- Generated by IcoMoon.io -->
<!DOCTYPE svg PUBLIC "-//W3C//DTD SVG 1.1//EN" "http://www.w3.org/Graphics/SVG/1.1/DTD/svg11.dtd">
<svg version="1.1" xmlns="http://www.w3.org/2000/svg" xmlns:xlink="http://www.w3.org/1999/xlink" width="100" height="100" viewBox="0 0 100 100">
	<path d="M50 0c-27.221 0-49.361 21.754-49.985 48.826 0.578-23.62 18.538-42.576 40.61-42.576 22.437 0 40.625 19.588 40.625 43.75 0 5.178 4.197 9.375 9.375 9.375 5.178 0 9.375-4.197 9.375-9.375 0-27.614-22.386-50-50-50zM50 100c27.221 0 49.361-21.754 49.985-48.826-0.578 23.62-18.538 42.576-40.61 42.576-22.437 0-40.625-19.588-40.625-43.75 0-5.178-4.197-9.375-9.375-9.375-5.178 0-9.375 4.197-9.375 9.375 0 27.614 22.386 50 50 50z" fill="#000000" />
</svg>
