<?xml version="1.0" encoding="utf-8"?>
<!-- Generated by IcoMoon.io -->
<!DOCTYPE svg PUBLIC "-//W3C//DTD SVG 1.1//EN" "http://www.w3.org/Graphics/SVG/1.1/DTD/svg11.dtd">
<svg version="1.1" xmlns="http://www.w3.org/2000/svg" xmlns:xlink="http://www.w3.org/1999/xlink" width="100" height="100" viewBox="0 0 100 100">
	<path d="M39.331 14.331l-31.25 31.25c-2.441 2.441-2.441 6.398 0 8.839l31.25 31.25c2.441 2.441 6.398 2.441 8.839 0 2.441-2.441 2.441-6.398 0-8.839l-20.581-20.581h59.911c3.452 0 6.25-2.798 6.25-6.25 0-3.452-2.798-6.25-6.25-6.25h-59.911l20.581-20.581c1.22-1.22 1.831-2.82 1.831-4.419s-0.61-3.199-1.83-4.419c-2.441-2.441-6.398-2.441-8.839 0z" fill="#000000" />
</svg>
